<svg xmlns="http://www.w3.org/2000/svg" width="500" height="125" viewBox="0 -16 200 50">
<path d="M110.992 21.4553C109.955 21.4553 108.949 21.4515 107.943 21.4586C107.768 21.46 107.682 21.3744 107.601 21.2408C105.436 17.6522 103.271 14.0633 101.097 10.4792C100.922 10.1903 101.017 10.1574 101.292 10.1601C102.153 10.1679 103.016 10.1791 103.876 10.1517C105.51 10.0999 106.812 8.94536 107.141 7.28876C107.455 5.70625 106.64 4.09566 105.181 3.42212C104.679 3.1904 104.15 3.09601 103.599 3.09703C101.386 3.10075 99.1728 3.09365 96.9596 3.10481C96.6894 3.10616 96.5309 3.02903 96.3934 2.78986C95.9697 2.05409 95.5199 1.33319 95.0894 0.622112C95.1298 0.506079 95.206 0.52773 95.2655 0.52773C98.1809 0.529421 101.097 0.501681 104.012 0.544644C106.801 0.585915 109.268 2.80847 109.716 5.59901C110.185 8.52453 108.621 11.1916 105.848 12.1581C105.529 12.2694 105.556 12.3719 105.704 12.6165C107.407 15.4121 109.1 18.2138 110.793 21.0151C110.866 21.1362 110.973 21.2442 110.992 21.4553H110.992Z" fill="#FFFFFF"/>
<path d="M137.352 0.524685C137.508 0.431994 137.642 0.469882 137.768 0.469544C139.953 0.466837 142.139 0.463793 144.324 0.468191C149.524 0.478339 153.807 4.15553 154.635 9.31477C155.447 14.3739 152.394 19.3815 147.584 20.9005C147.312 20.9864 147.191 20.9505 147.069 20.686C146.773 20.0463 146.452 19.4181 146.121 18.7963C145.998 18.5663 146.015 18.4756 146.281 18.4049C148.271 17.8738 149.778 16.6915 150.847 14.929C153.712 10.2051 150.664 3.85243 145.211 3.18701C143.931 3.03072 142.644 3.13898 141.361 3.1153C140.566 3.10041 139.771 3.11428 138.977 3.11056C138.852 3.10988 138.707 3.15927 138.625 3.00095C138.202 2.17621 137.777 1.35214 137.351 0.524685H137.352Z" fill="#FFFFFF"/>
<path d="M56.992 10.7454C57.0531 7.54992 58.3638 4.77291 60.8754 2.56287C61.2443 2.23845 61.249 2.24353 61.4634 2.66334C61.7654 3.25602 62.0594 3.8531 62.3732 4.43969C62.4814 4.64199 62.4875 4.77189 62.3117 4.95254C60.5034 6.81279 59.6833 9.04955 59.8939 11.6435C60.285 16.4587 64.6361 19.9942 69.4506 19.0274C69.7493 18.9675 69.8682 19.0473 69.9908 19.2963C70.2905 19.9049 70.6111 20.5033 70.935 21.0997C71.0445 21.3013 71.0331 21.3747 70.7861 21.4471C64.7598 23.2072 58.2661 19.1498 57.1818 12.9449C57.0642 12.2721 57.0095 11.5969 56.992 10.7454Z" fill="#E85F4E"/>
<path d="M68.076 0.000338264C73.2516 -0.0274014 77.9468 4.11663 78.5869 9.54446C79.0532 13.5004 77.6814 16.7622 74.7122 19.3677C74.4901 19.5629 74.3937 19.5483 74.262 19.2777C73.9532 18.6441 73.6206 18.0216 73.2799 17.4046C73.1656 17.1976 73.1683 17.0697 73.3464 16.8911C75.1718 15.0599 75.986 12.8306 75.7944 10.2559C75.4682 5.86829 71.862 2.50063 67.6137 2.62579C67.1232 2.64034 66.639 2.72153 66.1646 2.84805C65.9489 2.90556 65.8098 2.88797 65.6969 2.64711C65.4032 2.02093 65.081 1.40829 64.7558 0.798022C64.6385 0.578135 64.66 0.492548 64.9164 0.417786C65.8786 0.136668 66.8611 0.0263865 68.0764 0L68.076 0.000338264Z" fill="#E85F4E"/>
<path d="M35.6138 11.2626C35.6125 8.82797 36.224 6.7935 37.4238 4.93292C37.5797 4.69138 37.6593 4.62711 37.832 4.92446C38.253 5.64874 38.6962 6.36016 39.1451 7.06752C39.2667 7.25899 39.2627 7.40987 39.1743 7.61419C37.7158 10.9944 38.4741 14.701 41.1295 17.2148C43.4972 19.4563 47.1004 19.9938 50.0722 18.5338C50.3397 18.4025 50.4653 18.4117 50.6165 18.687C50.9428 19.2811 51.3033 19.8568 51.6628 20.4316C51.7764 20.6133 51.7932 20.7009 51.5661 20.8098C44.52 24.1886 37.0747 19.9911 35.7919 13.0342C35.6706 12.3759 35.6236 11.7136 35.6138 11.2626Z" fill="#E85F4E"/>
<path d="M10.9843 0.0575092C14.664 7.22042 18.3008 14.2994 21.9648 21.4316C20.9229 21.4316 19.9468 21.4265 18.9708 21.4353C18.7275 21.4373 18.708 21.2408 18.6358 21.1014C17.4739 18.8579 16.3185 16.611 15.16 14.3654C13.2945 10.7491 11.4304 7.13213 9.55662 3.52023C9.42693 3.27023 9.41483 3.0791 9.55124 2.82606C10.0287 1.93907 10.4799 1.03753 10.9843 0.0575092Z" fill="#E85F4E"/>
<path d="M135.071 21.4424C134.034 21.4424 133.069 21.4339 132.103 21.4478C131.84 21.4515 131.813 21.2523 131.735 21.1007C130.323 18.3724 128.916 15.6418 127.508 12.9118C125.899 9.79175 124.293 6.66969 122.674 3.55507C122.528 3.27463 122.535 3.06252 122.682 2.79054C123.152 1.91708 123.595 1.02873 124.089 0.0686727C127.763 7.21941 131.399 14.2961 135.071 21.4424Z" fill="#FFFFFF"/>
<path d="M86.9309 8.22886C85.9743 6.66326 85.0803 5.19983 84.1865 3.73606C84.159 3.69073 84.1082 3.63931 84.1139 3.59702C84.1989 2.97254 83.7571 3.10346 83.4154 3.10278C81.6538 3.10041 79.8922 3.09196 78.1306 3.11022C77.7922 3.11361 77.7076 3.01449 77.721 2.68702C77.7472 2.06119 77.7429 1.43333 77.7224 0.807157C77.7133 0.526716 77.7946 0.447556 78.0745 0.450601C79.4121 0.465147 80.75 0.457028 82.0879 0.457028C85.6907 0.457028 89.2933 0.461426 92.8961 0.449586C93.2146 0.448571 93.3342 0.508786 93.3174 0.856547C93.2869 1.49523 93.2959 2.13663 93.3148 2.77633C93.3225 3.0429 93.2365 3.10853 92.9808 3.10718C91.0999 3.09703 89.219 3.10887 87.3385 3.09466C87.03 3.09229 86.9376 3.16909 86.9416 3.48877C86.9591 4.96878 86.9494 6.44913 86.9487 7.92948C86.9487 7.99206 86.9417 8.05464 86.9309 8.22886Z" fill="#FFFFFF"/>
<path d="M23.7839 7.74443C23.7839 5.45185 23.7889 3.15894 23.7778 0.866356C23.7765 0.579488 23.8326 0.466838 24.1441 0.477325C24.8449 0.501005 25.5472 0.492886 26.2487 0.480369C26.5057 0.475633 26.6254 0.526715 26.625 0.827453C26.6163 5.42614 26.6173 10.0252 26.6237 14.6239C26.624 14.881 26.5551 14.9713 26.2887 14.9649C25.574 14.9473 24.8584 14.9422 24.1444 14.9665C23.8356 14.977 23.7761 14.8718 23.7778 14.5829C23.7892 12.3035 23.7842 10.0242 23.7842 7.74477L23.7839 7.74443Z" fill="#E85F4E"/>
<path d="M0.000336048 21.4323C2.42586 16.705 4.82149 12.0366 7.25373 7.2962C7.72278 8.20857 8.14008 9.06173 8.59871 9.89189C8.79795 10.2525 8.80635 10.5296 8.60812 10.9101C6.8455 14.2971 5.10708 17.6965 3.37168 21.0973C3.24703 21.3416 3.11666 21.4465 2.83275 21.44C1.91112 21.4197 0.988825 21.4323 0 21.4323H0.000336048Z" fill="#E85F4E"/>
<path d="M120.36 7.30432C120.887 8.33102 121.369 9.27891 121.862 10.2221C121.94 10.3712 121.927 10.4873 121.853 10.6297C120.04 14.1553 118.231 17.6827 116.42 21.2097C116.36 21.326 116.315 21.4465 116.14 21.4451C115.151 21.4387 114.162 21.4421 113.106 21.4421C115.53 16.7175 117.926 12.0492 120.36 7.30432Z" fill="#FFFFFF"/>
<path d="M164.59 0.546674C166.935 0.546674 169.281 0.552763 171.625 0.539231C171.927 0.53754 172.007 0.620421 171.996 0.917099C171.973 1.54327 171.973 2.17113 171.996 2.79731C172.007 3.10346 171.931 3.20427 171.608 3.19953C170.27 3.17991 168.932 3.19141 167.594 3.19141C164.242 3.19141 160.89 3.18498 157.539 3.20054C157.182 3.20224 157.09 3.10853 157.108 2.75976C157.138 2.16099 157.135 1.55883 157.108 0.959724C157.093 0.632261 157.178 0.535849 157.516 0.537878C159.874 0.553778 162.232 0.546336 164.591 0.546336L164.59 0.546674Z" fill="#FFFFFF"/>
<path d="M164.507 21.5222C162.189 21.5222 159.87 21.5121 157.552 21.5324C157.171 21.5358 157.093 21.4143 157.108 21.0655C157.134 20.4532 157.13 19.8382 157.109 19.2253C157.099 18.9414 157.186 18.8701 157.463 18.8717C159.437 18.8836 161.411 18.8782 163.385 18.8782C166.1 18.8782 168.816 18.888 171.532 18.8673C171.931 18.8643 172.017 18.9824 171.997 19.3555C171.965 19.9539 171.971 20.5564 171.996 21.1555C172.009 21.4593 171.916 21.5307 171.621 21.529C169.25 21.5165 166.878 21.5219 164.507 21.5219L164.507 21.5222Z" fill="#FFFFFF"/>
<path d="M46.631 0.0531122C49.2887 0.0964131 51.7512 1.07474 53.8363 3.01584C53.9986 3.16706 54.0154 3.25569 53.8669 3.42652C53.4043 3.95797 52.9443 4.49315 52.5139 5.05064C52.3093 5.31552 52.1974 5.24584 52.0005 5.05132C50.8373 3.90317 49.4627 3.14371 47.8537 2.84365C45.8031 2.46139 43.9064 2.87241 42.171 4.02022C41.8982 4.20053 41.7789 4.21304 41.615 3.90554C41.3146 3.34263 40.9867 2.79257 40.6362 2.2601C40.4575 1.98846 40.4739 1.86059 40.7602 1.68434C42.5101 0.607567 44.4081 0.0764541 46.631 0.0531122Z" fill="#E85F4E"/>
<path d="M30.0998 21.4323C28.1272 21.4323 26.1543 21.4231 24.1817 21.441C23.8396 21.4441 23.7627 21.3409 23.7765 21.0172C23.8027 20.4052 23.8013 19.7905 23.7768 19.1782C23.7644 18.8653 23.8527 18.7791 24.1679 18.7807C26.6039 18.7943 29.0401 18.7882 31.4764 18.7882C33.0253 18.7882 34.5746 18.7994 36.1235 18.7797C36.4639 18.7753 36.5465 18.8782 36.5331 19.2043C36.5076 19.8298 36.5119 20.4576 36.5317 21.0835C36.5408 21.3646 36.4545 21.4404 36.1773 21.4387C34.1516 21.4272 32.1259 21.4326 30.1002 21.4326L30.0998 21.4323Z" fill="#E85F4E"/>
<path d="M54.9475 18.3691C54.764 18.2929 54.7338 18.1515 54.6689 18.0446C54.0954 17.1015 53.5521 16.1384 52.9493 15.2145C52.5992 14.678 52.4393 14.1361 52.4769 13.4957C52.5183 12.791 52.4863 12.7893 51.7727 12.7893C50.0242 12.7893 48.2753 12.7829 46.5268 12.7954C46.2315 12.7974 46.1068 12.744 46.1216 12.4094C46.1502 11.7572 46.1354 11.1026 46.1267 10.449C46.124 10.244 46.1529 10.1382 46.4015 10.1392C49.157 10.1476 51.9125 10.1473 54.6676 10.1399C54.9058 10.1392 54.9515 10.2329 54.9508 10.4457C54.9458 13.0728 54.9475 15.6996 54.9475 18.3691Z" fill="#E85F4E"/>
<path d="M143.241 21.4427C142.007 21.4427 140.845 21.4427 139.682 21.4427C139.047 21.4427 138.41 21.4241 137.776 21.4505C137.458 21.4637 137.384 21.3629 137.385 21.053C137.396 17.7459 137.392 14.4392 137.392 11.1321V10.2298C137.414 10.2237 137.437 10.2177 137.459 10.2116C137.515 10.3083 137.576 10.4027 137.627 10.5025C138.45 12.1127 139.269 13.725 140.097 15.3326C140.211 15.5528 140.261 15.7713 140.258 16.0186C140.248 16.8051 140.278 17.593 140.244 18.3785C140.228 18.7533 140.357 18.8484 140.69 18.8017C140.82 18.7835 140.959 18.8213 141.086 18.795C141.711 18.6654 142.034 18.9543 142.268 19.5223C142.529 20.1579 142.886 20.7536 143.241 21.4427Z" fill="#FFFFFF"/>
<path d="M162.921 12.3742C161.133 12.3742 159.345 12.3621 157.557 12.3841C157.179 12.3888 157.092 12.2687 157.108 11.9145C157.135 11.3022 157.124 10.6879 157.111 10.0746C157.107 9.84859 157.144 9.7471 157.408 9.74744C161.077 9.75657 164.746 9.75522 168.414 9.74947C168.639 9.74913 168.713 9.81645 168.709 10.0438C168.697 10.697 168.689 11.3509 168.712 12.0038C168.722 12.3137 168.613 12.382 168.325 12.38C166.523 12.3682 164.722 12.3742 162.921 12.3742Z" fill="#FFFFFF"/>
<path d="M95.4234 8.58643C95.5887 8.67676 95.6223 8.79685 95.6815 8.89529C96.4821 10.2285 97.2781 11.5644 98.0828 12.8949C98.2044 13.0958 98.2646 13.2947 98.2639 13.5319C98.2579 16.024 98.2511 18.5165 98.2696 21.0087C98.2726 21.3937 98.1473 21.4756 97.7982 21.4634C97.1108 21.439 96.4217 21.4522 95.7336 21.4583C95.5377 21.46 95.4177 21.4407 95.4184 21.186C95.4254 17.0017 95.4234 12.8167 95.4234 8.58643Z" fill="#FFFFFF"/>
<path d="M84.0871 10.921C84.207 11.0931 84.2624 11.1639 84.3088 11.2403C85.1401 12.6019 85.9679 13.9656 86.8032 15.3245C86.905 15.4902 86.9527 15.6533 86.9521 15.8478C86.947 17.5808 86.9437 19.3139 86.9547 21.0466C86.9564 21.3166 86.8943 21.4197 86.6067 21.4123C85.8658 21.3934 85.1239 21.3998 84.3824 21.4096C84.1664 21.4123 84.082 21.3538 84.0824 21.1187C84.0891 17.7601 84.0867 14.4013 84.0867 10.9206L84.0871 10.921Z" fill="#FFFFFF"/>
</svg>
