<svg width="466" height="207" viewBox="0 0 466 207" fill="none" xmlns="http://www.w3.org/2000/svg">
<path d="M201.875 141.895C204.871 139.156 206.368 136.454 206.368 133.825C206.368 132.109 205.857 130.722 204.834 129.663C203.811 128.604 202.131 128.092 199.829 128.092C197.564 128.092 195.811 128.677 194.605 129.882C193.363 131.087 192.669 132.657 192.523 134.629H189.491C189.673 131.853 190.696 129.663 192.559 128.129C194.422 126.595 196.834 125.829 199.866 125.829C202.752 125.829 205.09 126.522 206.88 127.873C208.67 129.224 209.547 131.196 209.547 133.679C209.547 136.71 208.049 139.668 205.053 142.516C202.058 145.364 198.368 148.139 194.021 150.841H210.533V153.068H189.271V151.17C194.642 147.774 198.879 144.67 201.875 141.895Z" fill="white"/>
<path d="M224.269 129.517C225.84 127.143 228.653 125.938 232.744 125.938C236.836 125.938 239.649 127.143 241.22 129.517C242.791 131.89 243.594 135.249 243.594 139.558C243.594 143.94 242.791 147.336 241.22 149.746C239.649 152.156 236.836 153.361 232.744 153.361C228.653 153.361 225.803 152.156 224.232 149.746C222.662 147.336 221.894 143.94 221.894 139.558C221.894 135.249 222.698 131.89 224.269 129.517ZM239.941 133.643C239.539 132.036 238.809 130.758 237.676 129.772C236.544 128.786 234.9 128.312 232.781 128.312C230.662 128.312 229.018 128.786 227.886 129.772C226.753 130.758 225.986 132.036 225.621 133.643C225.219 135.249 225.036 137.221 225.036 139.558C225.036 141.968 225.219 143.976 225.621 145.619C226.022 147.226 226.753 148.541 227.886 149.527C229.018 150.512 230.662 150.987 232.781 150.987C234.9 150.987 236.544 150.512 237.676 149.527C238.809 148.541 239.576 147.263 239.941 145.619C240.343 144.013 240.526 141.968 240.526 139.558C240.489 137.221 240.306 135.249 239.941 133.643Z" fill="white"/>
<path d="M267.705 141.895C270.701 139.156 272.199 136.454 272.199 133.825C272.199 132.109 271.687 130.722 270.664 129.663C269.641 128.604 267.961 128.092 265.66 128.092C263.395 128.092 261.641 128.677 260.435 129.882C259.193 131.087 258.499 132.657 258.353 134.629H255.321C255.504 131.853 256.527 129.663 258.39 128.129C260.253 126.595 262.664 125.829 265.696 125.829C268.582 125.829 270.92 126.522 272.71 127.873C274.5 129.224 275.377 131.196 275.377 133.679C275.377 136.71 273.879 139.668 270.884 142.516C267.888 145.364 264.198 148.139 259.851 150.841H276.363V153.068H255.102V151.17C260.509 147.774 264.71 144.67 267.705 141.895Z" fill="white"/>
<path d="M345.664 150.622H361.884V153.068H341.938V150.878L357.939 128.129H342.23V125.683H361.665V127.873L345.664 150.622Z" fill="white"/>
<path d="M398.234 133.679C397.32 131.89 395.932 130.466 394.069 129.444C392.206 128.421 390.014 127.91 387.493 127.91C385.119 127.91 383 128.385 381.137 129.334C379.274 130.283 377.776 131.598 376.68 133.351C375.584 135.103 375.036 137.112 375.036 139.412C375.036 141.712 375.584 143.721 376.68 145.473C377.776 147.226 379.237 148.577 381.137 149.49C383 150.439 385.119 150.914 387.493 150.914C389.685 150.914 391.694 150.512 393.448 149.673C395.201 148.833 396.626 147.664 397.722 146.131C398.781 144.597 399.403 142.808 399.549 140.8H386.215V138.572H402.91V140.58C402.763 142.99 401.996 145.145 400.645 147.117C399.293 149.052 397.466 150.585 395.165 151.717C392.863 152.849 390.306 153.397 387.457 153.397C384.534 153.397 381.867 152.813 379.456 151.608C377.082 150.403 375.182 148.76 373.794 146.642C372.406 144.524 371.711 142.114 371.711 139.412C371.711 136.71 372.406 134.3 373.794 132.182C375.182 130.064 377.045 128.385 379.456 127.216C381.831 126.011 384.498 125.427 387.457 125.427C390.854 125.427 393.813 126.157 396.37 127.618C398.928 129.078 400.754 131.123 401.923 133.716H398.234V133.679Z" fill="white"/>
<path d="M143.241 111.734C139.479 110.201 136.519 108.083 134.364 105.344C132.172 102.606 131.003 99.4654 130.747 95.8869H141.342C141.634 98.8081 143.095 101.182 145.689 103.044C148.283 104.906 151.68 105.819 155.881 105.819C159.79 105.819 162.859 105.016 165.124 103.372C167.389 101.729 168.485 99.6844 168.485 97.165C168.485 94.6089 167.279 92.7102 164.868 91.4687C162.457 90.2272 158.767 88.9857 153.726 87.7808C149.159 86.6488 145.433 85.4803 142.547 84.3119C139.661 83.1434 137.177 81.3907 135.131 79.0903C133.085 76.7899 132.026 73.7227 132.026 69.9617C132.026 66.9676 132.976 64.229 134.839 61.746C136.702 59.263 139.369 57.2912 142.839 55.8307C146.273 54.3701 150.219 53.5303 154.639 53.5303C161.471 53.5303 166.987 55.283 171.188 58.5327C175.389 61.819 177.654 66.2738 177.947 71.97H167.718C167.498 68.9028 166.183 66.4564 163.845 64.5941C161.471 62.7319 158.329 61.819 154.347 61.819C150.657 61.819 147.735 62.5493 145.579 64.0464C143.387 65.5435 142.328 67.5153 142.328 69.9252C142.328 71.8605 142.986 73.4306 144.301 74.6721C145.616 75.9136 147.26 76.8995 149.269 77.6663C151.242 78.3966 154.018 79.2364 157.525 80.1858C161.946 81.3177 165.562 82.4497 168.339 83.5451C171.115 84.6405 173.49 86.3202 175.499 88.511C177.472 90.7019 178.531 93.5865 178.604 97.165C178.604 100.378 177.654 103.263 175.791 105.819C173.928 108.375 171.261 110.383 167.864 111.844C164.466 113.304 160.521 114.035 156.101 114.035C151.205 114.035 146.968 113.268 143.241 111.734Z" fill="white"/>
<path d="M234.133 59.9933C238.37 64.302 240.489 70.5095 240.489 78.6156V114.035H231.283V80.0032C231.283 74.1609 229.895 69.7061 227.082 66.6024C224.269 63.4987 220.47 61.9651 215.611 61.9651C210.716 61.9651 206.807 63.5717 203.884 66.785C200.998 69.9983 199.537 74.6356 199.537 80.77V114.071H190.221V53.5303H199.537V62.9145C201.364 59.9203 203.884 57.6199 207.062 55.9767C210.241 54.3336 213.711 53.5303 217.547 53.5303C224.379 53.5303 229.895 55.6846 234.133 59.9933Z" fill="white"/>
<path d="M255.723 67.8804C258.024 63.3526 261.239 59.8473 265.294 57.3643C269.349 54.8813 273.879 53.6398 278.847 53.6398C283.743 53.6398 288.017 54.7352 291.634 56.9626C295.25 59.1535 297.954 61.9286 299.707 65.2879V53.5303H309.132V114.035H299.707V102.204C297.881 105.636 295.104 108.448 291.488 110.675C287.834 112.903 283.597 114.035 278.738 114.035C273.77 114.035 269.276 112.757 265.221 110.201C261.203 107.645 258.024 104.03 255.723 99.4288C253.421 94.7915 252.252 89.5334 252.252 83.6181C252.252 77.6298 253.385 72.4082 255.723 67.8804ZM297.15 72.1891C295.433 68.9028 293.131 66.4198 290.245 64.6672C287.359 62.9145 284.145 62.0381 280.674 62.0381C277.204 62.0381 274.025 62.8779 271.176 64.5941C268.326 66.3103 266.025 68.7933 264.308 72.0796C262.591 75.3659 261.751 79.1999 261.751 83.6181C261.751 88.1094 262.591 91.9799 264.308 95.3027C266.025 98.6255 268.29 101.145 271.176 102.898C274.025 104.65 277.204 105.527 280.674 105.527C284.145 105.527 287.323 104.65 290.245 102.898C293.131 101.145 295.433 98.6255 297.15 95.3027C298.867 91.9799 299.707 88.1459 299.707 83.7277C299.707 79.3094 298.83 75.4754 297.15 72.1891Z" fill="white"/>
<path d="M338.431 56.9991C342.084 54.7718 346.322 53.6398 351.181 53.6398C356.149 53.6398 360.679 54.8813 364.734 57.3643C368.789 59.8473 371.967 63.3526 374.305 67.8804C376.607 72.4082 377.776 77.6298 377.776 83.6181C377.776 89.5334 376.607 94.7915 374.305 99.4288C372.004 104.066 368.789 107.645 364.734 110.201C360.679 112.757 356.149 114.035 351.181 114.035C346.395 114.035 342.194 112.903 338.54 110.675C334.887 108.448 332.111 105.636 330.211 102.313V153.507H320.896V53.5303H330.211V65.3609C332.038 62.0381 334.778 59.2265 338.431 56.9991ZM365.684 72.0796C363.967 68.7933 361.665 66.3103 358.779 64.5941C355.893 62.8779 352.678 62.0381 349.208 62.0381C345.81 62.0381 342.632 62.9145 339.746 64.6672C336.86 66.4198 334.522 68.9393 332.805 72.2621C331.051 75.585 330.211 79.3824 330.211 83.7277C330.211 88.1459 331.088 92.0164 332.805 95.3027C334.559 98.6255 336.86 101.145 339.746 102.898C342.632 104.65 345.81 105.527 349.208 105.527C352.678 105.527 355.857 104.65 358.779 102.898C361.665 101.145 363.967 98.6255 365.684 95.3027C367.401 91.9799 368.241 88.1094 368.241 83.6181C368.241 79.1999 367.364 75.3659 365.684 72.0796Z" fill="white"/>
<path d="M392.936 112.099C391.767 110.785 391.183 109.215 391.183 107.316C391.183 105.454 391.767 103.847 392.936 102.533C394.105 101.218 395.494 100.597 397.174 100.597C398.781 100.597 400.133 101.255 401.266 102.533C402.398 103.847 402.946 105.417 402.946 107.316C402.946 109.178 402.398 110.785 401.266 112.099C400.133 113.414 398.781 114.035 397.174 114.035C395.494 114.035 394.069 113.377 392.936 112.099ZM400.973 53.5303V94.5724H393.192V53.5303H400.973Z" fill="white"/>
<path d="M104.189 108.667L66.013 86.6487C62.0676 84.3483 62.0676 78.652 66.013 76.3516L104.189 54.3335C108.134 52.0331 113.103 54.9177 113.103 59.482V103.555C113.103 108.119 108.134 110.967 104.189 108.667Z" fill="#5AB5FF"/>
<path d="M104.189 152.667L66.013 130.648C62.0676 128.348 62.0676 122.652 66.013 120.351L104.189 98.3332C108.134 96.0328 113.103 98.9175 113.103 103.482V147.555C113.103 152.119 108.134 154.967 104.189 152.667Z" fill="#FFFB73"/>
<path d="M71.9312 76.3151L110.107 98.3332C114.052 100.634 114.052 106.33 110.107 108.63L71.9312 130.648C67.9858 132.949 63.0175 130.064 63.0175 125.5V81.4636C63.0175 76.8993 67.9858 74.0512 71.9312 76.3151Z" fill="#FF5A5A"/>
<path d="M301.054 146.721H287.482V144.303L300.235 126.285H304.174V144.576H307.996V146.721H304.174V153H301.054V146.721ZM301.054 144.576V128.976L290.056 144.576H301.054Z" fill="white"/>
</svg>
